<?xml version="1.0" standalone="no"?><!DOCTYPE svg PUBLIC "-//W3C//DTD SVG 1.1//EN" "http://www.w3.org/Graphics/SVG/1.1/DTD/svg11.dtd"><svg t="1747723055741" class="icon" viewBox="0 0 1024 1024" version="1.1" xmlns="http://www.w3.org/2000/svg" p-id="24914" xmlns:xlink="http://www.w3.org/1999/xlink" width="200" height="200"><path d="M124.928 888.32c-15.872 0-32.256-12.8-32.256-29.184V143.36c-0.512-15.872 11.776-29.696 27.648-30.208s34.304 11.776 34.816 27.648v718.848c0.512 15.872-13.824 28.672-30.208 28.672z" fill="#2C2C2C" p-id="24915"></path><path d="M901.632 888.32c-15.872 0-31.232-12.8-31.232-28.672v-290.304c0-44.032-30.208-74.24-74.24-74.24H121.856c-15.872-0.512-28.672-19.456-27.648-35.328 0.512-14.848 12.8-27.136 27.648-27.648h674.816c75.776 0 137.216 61.44 137.216 137.216v290.304c0 15.872-15.872 28.672-32.256 28.672z" fill="#2C2C2C" p-id="24916"></path><path d="M904.704 733.184H121.856c-15.872-0.512-28.672-14.336-27.648-30.208 0.512-14.848 12.8-31.744 27.648-32.256h782.848c15.872 0.512 28.672 18.944 27.648 34.816-0.512 15.36-12.288 27.136-27.648 27.648z m-558.08-243.2c-15.872 0-29.184-12.8-29.184-29.184V381.952c0-34.304-27.648-61.952-61.952-61.952H121.856c-15.872-0.512-28.672-14.336-27.648-30.208 0.512-14.848 12.8-27.136 27.648-27.648H256c66.048 0 119.808 53.76 119.808 119.808V460.8c0 15.872-13.312 28.672-29.184 29.184z" fill="#2C2C2C" p-id="24917"></path></svg>