<?xml version="1.0" standalone="no"?><!DOCTYPE svg PUBLIC "-//W3C//DTD SVG 1.1//EN" "http://www.w3.org/Graphics/SVG/1.1/DTD/svg11.dtd"><svg t="1747880451172" class="icon" viewBox="0 0 1024 1024" version="1.1" xmlns="http://www.w3.org/2000/svg" p-id="15986" xmlns:xlink="http://www.w3.org/1999/xlink" width="200" height="200"><path d="M869.3 392.5h90.9l-20.6-213.7H761.3l-20.5 213.7h90.8v240.6h-50.8v180.8h139.3V633.1h-50.8z" p-id="15987"></path><path d="M721.4 579.5h-44c-10.4 0-18.8 8.4-18.8 18.8v87.4c0 10.4-8.5 18.8-18.8 18.8H193.2c-10.4 0-18.8-8.4-18.8-18.8v-87.4c0-10.4-8.4-18.8-18.8-18.8h-44.2c-26 0-47.1 21.1-47.1 47.1v141.7c0 26 21.1 47.1 47.1 47.1h610.1c26 0 47.1-21.1 47.1-47.1V626.6c-0.1-26-21.2-47.1-47.2-47.1z" p-id="15988"></path><path d="M629 661.5v-89.6c0-10.4 8.5-18.8 18.8-18.8h61.7v-54.8c0-46.8-38-84.8-84.8-84.8H434.3v266.8h176c10.3 0 18.7-8.4 18.7-18.8zM203.7 571.8v89.6c0 10.4 8.4 18.8 18.8 18.8h175.9V413.5H208c-46.8 0-84.8 37.9-84.8 84.8V553h61.7c10.4 0 18.8 8.4 18.8 18.8z" p-id="15989"></path></svg>