<?xml version="1.0" standalone="no"?><!DOCTYPE svg PUBLIC "-//W3C//DTD SVG 1.1//EN" "http://www.w3.org/Graphics/SVG/1.1/DTD/svg11.dtd"><svg t="1747880662492" class="icon" viewBox="0 0 1024 1024" version="1.1" xmlns="http://www.w3.org/2000/svg" p-id="18365" xmlns:xlink="http://www.w3.org/1999/xlink" width="200" height="200"><path d="M288 640a32 32 0 0 1 32 32v160h42.666667v-160a32 32 0 0 1 64 0v192a32 32 0 0 1-32 32h-106.666667a32 32 0 0 1-32-32v-192a32 32 0 0 1 32-32z" fill="#222222" p-id="18366"></path><path d="M251.050667 639.488a32 32 0 0 1-37.205334-25.770667l-33.536-184.362666A74.666667 74.666667 0 0 1 253.781333 341.333333h175.104a74.666667 74.666667 0 0 1 73.472 88.021334l-33.536 184.362666a32 32 0 1 1-62.976-11.434666l33.536-184.362667a10.666667 10.666667 0 0 0-10.496-12.586667H253.781333a10.666667 10.666667 0 0 0-10.496 12.586667l33.536 184.32a32 32 0 0 1-25.770666 37.248zM341.333333 234.666667a21.333333 21.333333 0 1 1 0-42.666667 21.333333 21.333333 0 0 1 0 42.666667zM341.333333 298.666667a85.333333 85.333333 0 1 0 0-170.666667 85.333333 85.333333 0 0 0 0 170.666667zM629.333333 640a32 32 0 0 1 32 32v160h42.666667v-160a32 32 0 0 1 64 0v192a32 32 0 0 1-32 32h-106.666667a32 32 0 0 1-32-32v-192a32 32 0 0 1 32-32z" fill="#222222" p-id="18367"></path><path d="M832.256 638.08a32 32 0 0 1-40.96-19.157333l-67.157333-184.533334a44.16 44.16 0 0 0-82.944 0l-67.114667 184.533334a32 32 0 0 1-60.16-21.845334l67.114667-184.576a108.16 108.16 0 0 1 203.264 0l67.114666 184.576a32 32 0 0 1-19.157333 40.96zM682.666667 234.666667a21.333333 21.333333 0 1 1 0-42.666667 21.333333 21.333333 0 0 1 0 42.666667zM682.666667 298.666667a85.333333 85.333333 0 1 0 0-170.666667 85.333333 85.333333 0 0 0 0 170.666667z" fill="#222222" p-id="18368"></path></svg>